<svg xmlns="http://www.w3.org/2000/svg" width="94.979" viewBox="0 0 94.979 81.625"><circle cx="76.417" cy="18.562" r="18.562" fill="#E91D00"/><path d="M80.085 22.92c.458 0 .688.23.688.688v2.563c0 .46-.23.688-.688.688h-9.75c-.435 0-.687-.252-.687-.687v-1.968c0-5.264 6.73-6.752 7.095-8.56.138-.688-.23-1.282-1.12-1.282-1.077 0-1.604.595-1.764 1.533-.07.458-.298.664-.756.572l-2.61-.572c-.41-.09-.617-.343-.594-.755.137-1.648 1.007-4.715 5.722-4.715 5.127 0 5.31 4.05 5.287 4.737 0 4.486-5.997 5.196-6.8 7.508-.045.16.024.252.207.252h5.768zM18.75 78.79a2.835 2.835 0 01-2.835 2.835H2.835A2.836 2.836 0 010 78.79V65.335A2.836 2.836 0 012.835 62.5h13.08a2.836 2.836 0 012.836 2.835V78.79zm25.75 0a2.835 2.835 0 01-2.835 2.835h-13.08a2.835 2.835 0 01-2.835-2.835V65.335a2.835 2.835 0 012.835-2.835h13.08a2.836 2.836 0 012.836 2.835V78.79zm27 0a2.835 2.835 0 01-2.835 2.835h-13.08a2.835 2.835 0 01-2.835-2.835V65.335a2.835 2.835 0 012.835-2.835h13.08a2.836 2.836 0 012.836 2.835V78.79zM45.25 30.915a2.835 2.835 0 01-2.835 2.835h-13.08a2.835 2.835 0 01-2.835-2.835V17.46a2.835 2.835 0 012.835-2.835h13.08a2.836 2.836 0 012.836 2.835v13.455zm18.062 25.96a2.5 2.5 0 01-2.5-2.5v-7.5h-50v7.5a2.5 2.5 0 01-5 0v-10a2.5 2.5 0 012.5-2.5h55a2.5 2.5 0 012.5 2.5v10a2.5 2.5 0 01-2.5 2.5z" fill="#FFF"/><path d="M35.812 56.875a2.5 2.5 0 01-2.5-2.5v-15a2.5 2.5 0 015 0v15a2.5 2.5 0 01-2.5 2.5z" fill="#FFF"/></svg>
