<svg xmlns="http://www.w3.org/2000/svg" width="103.75" viewBox="0 0 103.75 85.089"><path d="M38.625 83.25s3.383-2.562 3.383-4.125.554-2.125.554-2.125 3.98 2.923 2.5 6.25c-1.25 2.812-5.187 2.062-6.437 0zm-4.467-9.837a2.834 2.834 0 014.007.136l.68.777a2.836 2.836 0 01-.137 4.007l-2.223 2.117a2.833 2.833 0 01-4.007-.135l-.678-.778a2.834 2.834 0 01.136-4.007l2.222-2.117zm-.908-58.288s17.125-.375 21.75-2.25 5.5-2.75 5.5-2.75l22.25 22.25s-.625 7.125-3.625 12-5.75 7.375-5.75 7.375L45 23.375s-12.25.5-15.625-.25-5.375-8.875 3.875-8z" fill="#FFF"/><path d="M21.875 11.125l3.5 2.375s-2.625 3.875-1.75 8.375 7 5.25 9.625 5.375 11.125 0 11.125 0L75.5 58.875s1.75 4 0 5.625-4.125 1.875-8.375-2-11.75-12.875-11.75-12.875-2.25-2-3.5-.25 1.75 5.25 6 9.375 13 12.5 13 12.5 1.625 3.485.125 5.43-4.75 1.57-8-1.68-15.625-16.5-15.625-16.5-2.5-2.625-4.125-.5 4.375 6.5 6.5 8.75S59 76 59 76s1.375 3.125-.375 5S53 81.75 50 79 37.125 66.25 37.125 66.25s0-3-2.125-4.125S32.125 61 32.125 61s.625-5.875-1.75-7.75-8.5-.625-8.5-.625-.875-6.45-5.25-6.1-6.25 3.6-6.25 3.6l-2-5.625L1 36.75s-2.25-2.25 0-4.375 20.875-21.25 20.875-21.25z" fill="#FFF"/><circle cx="85.188" cy="18.562" r="18.562" fill="#E91D00"/><path d="M23.61 55.258a2.833 2.833 0 014.006.136l.68.778a2.836 2.836 0 01-.137 4.007l-6.278 6.438a2.834 2.834 0 01-4.007-.136l-.68-.778a2.836 2.836 0 01.137-4.007l6.277-6.44zm5.007 9.482a2.836 2.836 0 014.007.137l.68.778a2.836 2.836 0 01-.137 4.007L29.07 73.7a2.835 2.835 0 01-4.008-.136l-.68-.778a2.836 2.836 0 01.137-4.007l4.097-4.04zM13.533 51.122a2.834 2.834 0 014.007.136l.68.778a2.836 2.836 0 01-.137 4.007L15.07 58.7a2.835 2.835 0 01-4.008-.136l-.68-.778a2.836 2.836 0 01.137-4.007l3.013-2.658zm76.291-30.444c0 .435-.23.687-.687.687h-.274c-.436 0-.688.23-.688.687v4.12c0 .435-.23.687-.687.687h-2.563c-.435 0-.687-.253-.687-.688v-4.12c0-.458-.23-.687-.687-.687h-5.79c-.435 0-.687-.252-.687-.687v-3.204c0-.023.07-.206.138-.458l1.97-3.914c.183-.366.366-.55.777-.55h2.52c.502 0 .8.32.57.778l-1.922 3.846c-.046.16 0 .252.183.252h2.243c.46 0 .688-.252.688-.687v-5.676c0-.458.252-.687.687-.687h2.563c.458 0 .687.23.687.687v5.677c0 .436.252.688.688.688h.274c.458 0 .687.23.687.687v2.563z" fill="#FFF"/></svg>
