<svg xmlns="http://www.w3.org/2000/svg" width="105.066" viewBox="0 0 105.066 80.19"><circle cx="86.503" cy="18.562" r="18.562" fill="#E91D00"/><path d="M86.296 10.836c.458 0 .687.23.687.687V26.17c0 .436-.23.688-.687.688h-2.54c-.436 0-.687-.252-.687-.687V16.1c0-.457-.23-.687-.69-.687H81.4c-.436 0-.688-.252-.688-.687V13.49c0-.39.138-.64.458-.823l2.93-1.763a.635.635 0 01.298-.068h1.9zM44.19 41.37l9.813 1.063 2.5-3.562s-.938-5.75 5.25-6.624 15.507.4 17.57 4.93 3.46 10.225 3.46 10.225.02 1.79-.904 2.435c-.786.55-1.87.84-3.19.035l-4.437-10.25-3.062-.875s-1.624.44-.75 2.44 4.063 9.81 4.063 9.81 1.25 2.875-.375 4.125-6.75 6.125-6.75 6.125l10.5 12.438s1.812 2.875-.188 4.812-4.812.312-6.875-2-9.438-11.25-9.438-11.25l-6.312 11.75s-1.688 3.688-4.625 2.875-3.5-3-1.812-6.562l7.375-13.938s1.625-2.812 2.625-3.75l3.875-2.562-3.375-8.125-1.562 2.5s-1.5 1.625-4 1.125-10.188-1.812-10.188-1.812-2.125-1.125-1.938-2.688.5-2.93 2.75-2.687z" fill="#FFF"/><circle cx="59.828" cy="22.906" r="6.027" fill="#FFF"/><circle cx="38.379" cy="26.406" r="6.027" fill="#FFF"/><path d="M9.17 38.433l7.083-7.5s1.583-2.167 3.917-1.25 5.167 1.917 5.167 1.917 6.833.024 8.917 2.345c2.083 2.32 2.75 4.655 2.25 6.82l-.833 3.168 1.418 3.083 9.5 3s1.667.417.75 3.333c0 0-.833 2-3.833 1.416-3-.583-10.167-2.75-10.167-2.75s-1.75-.333-2-2.333-.333-3.167-.333-3.167l-5 4.833s-1.083 1.416.167 2.75c1.25 1.332 6.583 7.332 6.583 7.332s.833 1 .333 4.083c-.5 3.083-2.667 11.75-2.667 11.75s-.75 3.083-3.666 2.917-4-2.75-2.833-6.667a2280.52 2280.52 0 002.584-8.75l-2.5-1.917L6.59 72.681S2.92 74.85.92 72.433c0 0-3.167-3.333 2.25-6.417l13.333-7.333L13.67 52.1s-2.167-3.25.833-5.667l9.303-9.5-4.22-.667-6 5.5s-1.332 2.917-4.25 2c0 0-3.776-1.51-.166-5.333z" fill="#FFF"/></svg>
