<svg xmlns="http://www.w3.org/2000/svg" width="88.116" viewBox="0 0 88.116 86.583"><path d="M13.783 43.167h15.083s3.688 5.75 9.354 5.833c0 0 5.21-.103 7.938-2.062 2.438-1.75 3.958-3.77 3.958-3.77H64.7L71.533 81H57.7l-1.5-12.833-32.833.25L21.72 81H7.616l6.167-37.833z" fill="#FFF"/><path fill="#FFF" d="M25.033 70.667H53.7L55.116 81H24.2m39.916-40.583L60.45 13.333h-8.667v8.917l-25-.167.417-8.75h-9.333L14.2 40.417h14.75s2.458-5.833 10.958-5.667 10.375 5.667 10.375 5.667h13.833z"/><path fill="#FFF" d="M29.616 13.333h19.917v6.833H29.616zm2.624 27.084s3.168-4.25 8.668-3.5 6 3.5 6 3.5H32.24zm-.457 2.75h15.125S44.825 46.584 39.575 47s-7.792-3.833-7.792-3.833z"/><path d="M78.702 86.583H0L13.688 7.917H66.4l12.302 78.666zm-75.136-3h71.63L63.833 10.917H16.21L3.567 83.583z" fill="#FFF"/><circle cx="69.554" cy="18.562" r="18.562" fill="#E91D00"/><path d="M62.86 15.893c-.41-.09-.617-.343-.595-.755.138-1.648 1.007-4.715 5.722-4.715 3.686 0 5.448 2.357 5.333 5.013-.09 1.808-.938 2.884-1.625 3.296-.16.068-.16.16 0 .23.687.41 1.534 1.487 1.625 3.295.115 2.655-1.647 5.013-5.333 5.013-4.715 0-5.584-3.067-5.722-4.715-.022-.412.184-.664.595-.756l2.61-.573c.457-.09.686.115.755.572.16.937.687 1.533 1.762 1.533.916 0 1.625-.893 1.145-1.83-.343-.643-1.145-1.054-2.243-1.19-.458-.047-.688-.253-.688-.688v-1.557c0-.435.23-.64.687-.687 1.098-.137 1.9-.55 2.242-1.19.504-.937-.23-1.83-1.145-1.83-1.075 0-1.602.595-1.762 1.533-.07.458-.298.664-.756.572l-2.61-.572z" fill="#FFF"/></svg>
